<?xml version="1.0" encoding="utf-8"?>
<!-- Generator: Adobe Illustrator 22.0.1, SVG Export Plug-In . SVG Version: 6.00 Build 0)  -->
<svg version="1.1" id="Laag_1" xmlns="http://www.w3.org/2000/svg" xmlns:xlink="http://www.w3.org/1999/xlink" x="0px" y="0px"
	 viewBox="0 0 177.6 256.7" style="enable-background:new 0 0 177.6 256.7;" xml:space="preserve">
<style type="text/css">
	.st0{fill:none;stroke:#D26C5E;stroke-width:5;stroke-linecap:round;stroke-linejoin:round;stroke-miterlimit:10;}
	.st1{fill:#D26C5E;}
</style>
<path class="st0" d="M122.9,114.3l18,18c12.2,12.2,12.2,32,0,44.2v0c-12.2,12.2-32,12.2-44.2,0l-9.2-9.2
	c-6.6,10.6-15.8,18.3-28.5,18.3l0,0c-17.3,0-31.2-14-31.2-31.2V59.2C27.8,42,41.8,28,59.1,28l0,0c12.7,0,21.5,8.6,28.5,18.3l9.2-9.2
	c12.2-12.2,32-12.2,44.2,0v0c12.2,12.2,12.2,32,0,44.2l-25.5,25.5c0,0-21.2,22.7-24.6,24.7c-2.6,1.8-5.8,2.8-9.2,2.6
	c-8.5-0.3-15.2-7.5-14.8-16c0.2-5.6,3.4-10.4,7.9-12.9c-4.4-2.9-7.2-7.9-7-13.5c0.3-8.5,7.5-15.2,16-14.8c3.4,0.1,6.5,1.4,9,3.4
	c2.4,1.7,9.7,11.4,16,18.3"/>
<g>
	<path class="st1" d="M45.7,228.2c0.1,0.3,0.1,0.5,0.1,0.8c0,0.6-0.2,1.2-0.7,1.6c-0.5,0.4-1.1,0.6-1.7,0.6c-0.3,0-0.6-0.1-0.9-0.2
		s-0.5-0.3-0.7-0.6L34,220.1l-3.4,3.3v5.6c0,0.6-0.2,1.2-0.6,1.6s-1,0.6-1.6,0.6c-0.6,0-1.2-0.2-1.6-0.6s-0.6-0.9-0.6-1.6v-20.8
		c0-0.6,0.2-1.1,0.6-1.6c0.4-0.4,1-0.6,1.7-0.6c0.6,0,1.2,0.2,1.6,0.6s0.6,0.9,0.6,1.6v9.8L42,206.7c0.6-0.6,1.1-0.8,1.8-0.8
		c0.5,0,1,0.2,1.4,0.7c0.4,0.5,0.6,0.9,0.6,1.4c0,0.5-0.2,1-0.6,1.4l-7.8,7.5l8,10.6C45.4,227.7,45.6,227.9,45.7,228.2z"/>
	<path class="st1" d="M73.1,229.3c0,0.6-0.2,1.1-0.6,1.5c-0.4,0.4-0.9,0.6-1.4,0.6c-0.4,0-0.8-0.1-1.2-0.4c-0.3-0.3-0.6-0.6-0.8-1.1
		l-1.9-4.3H56.5l-1.9,4.4c-0.2,0.5-0.4,0.8-0.8,1.1c-0.3,0.3-0.7,0.4-1.1,0.4c-0.6,0-1.1-0.2-1.4-0.5s-0.5-0.8-0.5-1.4
		c0-0.2,0-0.4,0.1-0.7l8.9-21.5c0.2-0.5,0.5-0.8,0.9-1.1s0.8-0.4,1.3-0.3c0.4,0,0.8,0.1,1.2,0.4c0.4,0.3,0.6,0.6,0.8,1.1l8.8,21
		C73,228.7,73.1,229,73.1,229.3z M58.3,221.4h7.2l-3.6-8.4L58.3,221.4z"/>
	<path class="st1" d="M96.3,207.7c1.6,1.1,2.8,2.6,3.7,4.5c0.8,1.9,1.3,4,1.3,6.4c0,2.3-0.4,4.5-1.3,6.4c-0.9,1.9-2.1,3.4-3.7,4.5
		c-1.6,1.1-3.5,1.7-5.8,1.7h-8.6c-0.6,0-1.1-0.2-1.6-0.6s-0.6-0.9-0.6-1.6v-20.8c0-0.6,0.2-1.1,0.6-1.6c0.4-0.4,0.9-0.6,1.6-0.6h8.6
		C92.7,206.1,94.7,206.6,96.3,207.7z M95,224.7c1.1-1.6,1.6-3.6,1.6-6.1c0-2.4-0.5-4.5-1.6-6c-1.1-1.6-2.7-2.4-4.8-2.4h-5.9v16.9
		h5.9C92.3,227.1,93.9,226.3,95,224.7z"/>
	<path class="st1" d="M124.7,227.7c0.4,0.4,0.6,0.9,0.6,1.5c0,0.6-0.2,1.1-0.6,1.5c-0.4,0.4-0.9,0.6-1.6,0.6h-12
		c-0.6,0-1.1-0.2-1.6-0.6s-0.6-0.9-0.6-1.6v-20.8c0-0.6,0.2-1.1,0.6-1.6c0.4-0.4,0.9-0.6,1.6-0.6h12c0.6,0,1.1,0.2,1.6,0.6
		c0.4,0.4,0.6,0.9,0.6,1.5c0,0.6-0.2,1.1-0.6,1.5c-0.4,0.4-0.9,0.6-1.6,0.6h-9.7v6.1h8.1c0.6,0,1.1,0.2,1.6,0.6
		c0.4,0.4,0.6,0.9,0.6,1.5c0,0.6-0.2,1.1-0.6,1.5c-0.4,0.4-0.9,0.6-1.6,0.6h-8.1v6.6h9.7C123.8,227.1,124.3,227.3,124.7,227.7z"/>
	<path class="st1" d="M148.9,227.7c0.4,0.4,0.6,0.9,0.6,1.5c0,0.6-0.2,1.1-0.6,1.5c-0.4,0.4-0.9,0.6-1.6,0.6h-12
		c-0.6,0-1.1-0.2-1.6-0.6s-0.6-0.9-0.6-1.6v-20.8c0-0.6,0.2-1.1,0.6-1.6c0.4-0.4,0.9-0.6,1.6-0.6h12c0.6,0,1.1,0.2,1.6,0.6
		c0.4,0.4,0.6,0.9,0.6,1.5c0,0.6-0.2,1.1-0.6,1.5c-0.4,0.4-0.9,0.6-1.6,0.6h-9.7v6.1h8.1c0.6,0,1.1,0.2,1.6,0.6
		c0.4,0.4,0.6,0.9,0.6,1.5c0,0.6-0.2,1.1-0.6,1.5c-0.4,0.4-0.9,0.6-1.6,0.6h-8.1v6.6h9.7C147.9,227.1,148.5,227.3,148.9,227.7z"/>
</g>
</svg>
